<?xml version="1.0" encoding="UTF-8" standalone="no"?>
<svg
   width="327.74"
   height="36.009"
   viewBox="0 0 327.74 36.009"
   version="1.1"
   id="svg833"
   sodipodi:docname="SyncopateBoldFlexPAIR.svg"
   inkscape:version="1.1.1 (c3084ef, 2021-09-22)"
   xmlns:inkscape="http://www.inkscape.org/namespaces/inkscape"
   xmlns:sodipodi="http://sodipodi.sourceforge.net/DTD/sodipodi-0.dtd"
   xmlns="http://www.w3.org/2000/svg"
   xmlns:svg="http://www.w3.org/2000/svg">
  <defs
     id="defs837" />
  <sodipodi:namedview
     id="namedview835"
     pagecolor="#ffffff"
     bordercolor="#666666"
     borderopacity="1.0"
     inkscape:pageshadow="2"
     inkscape:pageopacity="0.0"
     inkscape:pagecheckerboard="0"
     showgrid="false"
     inkscape:zoom="1.6949412"
     inkscape:cx="255.1711"
     inkscape:cy="6.4899008"
     inkscape:window-width="1280"
     inkscape:window-height="1024"
     inkscape:window-x="0"
     inkscape:window-y="0"
     inkscape:window-maximized="0"
     inkscape:current-layer="svgGroup" />
  <g
     id="svgGroup"
     stroke-linecap="round"
     fill-rule="evenodd"
     font-size="9pt"
     stroke="#000"
     stroke-width="0.25mm"
     fill="#000"
     style="stroke:#000;stroke-width:0.25mm;fill:#000">
    <path
       d="M 32.697 8.168 L 9.239 8.168 L 9.239 14.12 L 31.477 14.12 L 31.477 21.416 L 9.239 21.416 L 9.239 35.088 L 0 35.088 L 0 0.872 L 32.697 0.872 L 32.697 8.168 Z"
       id="0"
       vector-effect="non-scaling-stroke"
       style="fill:#000000" />
    <path
       d="M 49.83 0.872 L 49.83 20.445 Q 49.83 21.95 50.026 23.067 A 8.105 8.105 0 0 0 50.228 23.944 A 5.273 5.273 0 0 0 50.691 25.059 A 4.034 4.034 0 0 0 51.523 26.098 A 4.386 4.386 0 0 0 52.776 26.869 A 6.058 6.058 0 0 0 53.851 27.194 Q 54.934 27.419 56.393 27.475 A 26.035 26.035 0 0 0 57.375 27.492 L 74.906 27.492 L 74.906 35.088 L 55.482 35.088 A 41.517 41.517 0 0 1 52.627 34.995 Q 51.228 34.898 50.013 34.701 A 20.784 20.784 0 0 1 48.622 34.428 A 15.083 15.083 0 0 1 46.496 33.772 Q 45.335 33.312 44.414 32.684 A 8.773 8.773 0 0 1 44.002 32.386 A 7.897 7.897 0 0 1 41.4 28.887 Q 40.656 26.941 40.596 24.321 A 20.296 20.296 0 0 1 40.591 23.857 L 40.591 0.872 L 49.83 0.872 Z"
       id="1"
       vector-effect="non-scaling-stroke"
       style="fill:#000000" />
    <path
       d="M 120.204 25.401 L 120.204 33.394 A 49.195 49.195 0 0 1 111.799 35.399 Q 107.603 36.009 103.22 36.009 Q 97.71 36.009 93.392 34.841 A 27.689 27.689 0 0 1 93.247 34.801 A 24.774 24.774 0 0 1 89.337 33.377 A 18.617 18.617 0 0 1 85.888 31.302 Q 82.9 29.011 81.331 25.699 A 16.283 16.283 0 0 1 79.9 20.611 A 20.42 20.42 0 0 1 79.762 18.204 A 16.69 16.69 0 0 1 81.017 11.729 A 16.136 16.136 0 0 1 81.344 10.995 A 17.148 17.148 0 0 1 85.826 5.217 A 19.891 19.891 0 0 1 90.386 2.351 A 24.695 24.695 0 0 1 92.836 1.382 A 26.252 26.252 0 0 1 98.342 0.195 A 33.378 33.378 0 0 1 102 0 A 30.032 30.032 0 0 1 107.122 0.421 A 24.578 24.578 0 0 1 110.529 1.258 A 19.416 19.416 0 0 1 115.127 3.42 A 17.122 17.122 0 0 1 117.178 4.981 A 16.68 16.68 0 0 1 121.389 10.832 A 19.178 19.178 0 0 1 121.486 11.057 A 18.904 18.904 0 0 1 122.76 15.698 A 25.185 25.185 0 0 1 123.018 19.374 L 123.018 21.665 L 89.3 21.665 Q 89.748 23.284 90.781 24.629 A 7.768 7.768 0 0 0 92.349 26.145 A 10.168 10.168 0 0 0 93.583 26.92 A 12.786 12.786 0 0 0 95.385 27.702 Q 96.251 28.006 97.248 28.24 A 22.745 22.745 0 0 0 97.928 28.389 A 23.916 23.916 0 0 0 100.283 28.737 Q 102.019 28.912 104.092 28.912 A 39.329 39.329 0 0 0 109.072 28.601 A 45.293 45.293 0 0 0 111.996 28.134 A 37.696 37.696 0 0 0 113.629 27.779 A 40.53 40.53 0 0 0 115.643 27.24 A 30.865 30.865 0 0 0 117.452 26.646 A 24.106 24.106 0 0 0 118.593 26.198 Q 119.122 25.974 119.565 25.75 A 10.626 10.626 0 0 0 120.204 25.401 Z M 89.3 14.892 L 113.829 14.892 Q 113.704 13.622 113.069 12.265 A 6.357 6.357 0 0 0 111.937 10.614 A 8.248 8.248 0 0 0 111.064 9.812 A 8.858 8.858 0 0 0 109.622 8.884 Q 108.91 8.513 108.061 8.205 A 16.302 16.302 0 0 0 107.479 8.006 Q 105.262 7.297 101.95 7.297 A 21.123 21.123 0 0 0 99.474 7.434 Q 97.881 7.622 96.571 8.069 A 16.503 16.503 0 0 0 94.668 8.845 Q 93.694 9.319 92.906 9.889 A 10.02 10.02 0 0 0 92.774 9.986 A 11.344 11.344 0 0 0 91.488 11.098 A 8.363 8.363 0 0 0 90.396 12.451 A 10.333 10.333 0 0 0 89.825 13.452 Q 89.569 13.971 89.417 14.455 A 5.302 5.302 0 0 0 89.3 14.892 Z"
       id="2"
       vector-effect="non-scaling-stroke"
       style="fill:#000000" />
    <path
       d="M 169.46 0.872 L 154.046 17.531 L 170.282 35.088 L 159.201 35.088 L 148.493 23.558 L 137.834 35.088 L 126.778 35.088 L 142.989 17.531 L 127.575 0.872 L 138.656 0.872 L 148.493 11.58 L 158.379 0.872 L 169.46 0.872 Z"
       id="3"
       vector-effect="non-scaling-stroke"
       style="fill:#157878" />
    <path
       d="M 200.912 24.28 L 185.572 24.28 L 185.572 35.088 L 176.333 35.088 L 176.333 0.872 L 200.912 0.872 Q 203.976 0.872 206.29 1.435 A 14.337 14.337 0 0 1 207.337 1.731 A 13.442 13.442 0 0 1 209.527 2.653 A 9.829 9.829 0 0 1 211.633 4.146 Q 213.289 5.703 214.036 7.844 Q 214.783 9.986 214.783 12.551 A 15.385 15.385 0 0 1 214.505 15.524 A 12.943 12.943 0 0 1 214.036 17.27 Q 213.289 19.424 211.633 20.98 A 9.971 9.971 0 0 1 209.458 22.515 A 13.68 13.68 0 0 1 207.337 23.408 Q 204.697 24.28 200.912 24.28 Z M 198.92 8.168 L 185.572 8.168 L 185.572 16.984 L 198.92 16.984 A 26.011 26.011 0 0 0 200.203 16.954 Q 200.813 16.924 201.341 16.863 A 12.171 12.171 0 0 0 201.983 16.772 A 7.083 7.083 0 0 0 202.85 16.571 Q 203.288 16.438 203.646 16.255 A 3.654 3.654 0 0 0 204 16.05 A 2.878 2.878 0 0 0 205.108 14.718 A 4.18 4.18 0 0 0 205.344 13.896 Q 205.418 13.498 205.437 13.04 A 7.939 7.939 0 0 0 205.444 12.7 A 7.166 7.166 0 0 0 205.389 11.785 Q 205.308 11.156 205.108 10.646 A 3.065 3.065 0 0 0 204 9.239 A 4.211 4.211 0 0 0 203.203 8.801 Q 202.807 8.633 202.335 8.512 A 8.002 8.002 0 0 0 201.983 8.43 A 10.79 10.79 0 0 0 200.969 8.27 Q 200.413 8.208 199.773 8.184 A 22.476 22.476 0 0 0 198.92 8.168 Z"
       id="4"
       vector-effect="non-scaling-stroke"
       style="fill:#000000" />
    <path
       d="M 251.389 35.088 L 248.177 28.613 L 229.102 28.613 L 225.889 35.088 L 215.58 35.088 L 233.484 0.872 L 243.794 0.872 L 261.699 35.088 L 251.389 35.088 Z M 238.689 9.339 L 232.414 21.939 L 244.915 21.939 L 238.689 9.339 Z"
       id="5"
       vector-effect="non-scaling-stroke"
       style="fill:#000000" />
    <path
       d="M 276.541 35.088 L 267.302 35.088 L 267.302 0.872 L 276.541 0.872 L 276.541 35.088 Z"
       id="6"
       vector-effect="non-scaling-stroke"
       style="fill:#000000" />
    <path
       d="M 296.487 22.487 L 296.487 35.088 L 287.249 35.088 L 287.249 0.872 L 310.408 0.872 A 30.39 30.39 0 0 1 313.05 0.98 Q 315.119 1.161 316.745 1.644 Q 319.209 2.375 320.803 3.686 A 8.402 8.402 0 0 1 320.979 3.835 Q 322.61 5.255 323.344 7.259 A 11.975 11.975 0 0 1 323.99 10.071 A 15.059 15.059 0 0 1 324.079 11.729 Q 324.079 13.896 323.469 15.514 A 9.339 9.339 0 0 1 322.541 17.358 A 7.99 7.99 0 0 1 321.825 18.291 A 9.808 9.808 0 0 1 319.422 20.246 Q 318.053 21.043 316.534 21.566 L 327.74 35.088 L 316.932 35.088 L 306.573 22.487 L 296.487 22.487 Z M 309.138 8.019 L 296.487 8.019 L 296.487 15.34 L 309.138 15.34 Q 310.308 15.34 311.199 15.236 A 9.928 9.928 0 0 0 311.84 15.141 A 6.436 6.436 0 0 0 312.562 14.967 Q 313.156 14.785 313.57 14.506 Q 314.218 14.07 314.479 13.373 A 3.809 3.809 0 0 0 314.663 12.68 Q 314.721 12.338 314.736 11.946 A 7.135 7.135 0 0 0 314.741 11.679 A 6.326 6.326 0 0 0 314.698 10.926 Q 314.636 10.403 314.479 9.986 Q 314.218 9.289 313.57 8.853 A 3.387 3.387 0 0 0 312.946 8.527 Q 312.466 8.333 311.84 8.218 A 10.563 10.563 0 0 0 310.952 8.097 Q 310.475 8.05 309.925 8.032 A 23.127 23.127 0 0 0 309.138 8.019 Z"
       id="7"
       vector-effect="non-scaling-stroke"
       style="fill:#000000" />
  </g>
</svg>
